<?xml version="1.0" standalone="no"?>
<!DOCTYPE svg PUBLIC "-//W3C//DTD SVG 20010904//EN"
 "http://www.w3.org/TR/2001/REC-SVG-20010904/DTD/svg10.dtd">
<svg version="1.0" xmlns="http://www.w3.org/2000/svg"
 width="260.000000pt" height="260.000000pt" viewBox="0 0 260.000000 260.000000"
 preserveAspectRatio="xMidYMid meet">
<metadata>
Created by potrace 1.14, written by Peter Selinger 2001-2017
</metadata>
<g transform="translate(0.000000,260.000000) scale(0.100000,-0.100000)"
fill="#000000" stroke="none">
<path d="M1261 2331 c-6 -10 -7 -21 -4 -25 3 -3 1 -6 -5 -6 -7 0 -12 -9 -12
-19 0 -11 -4 -23 -10 -26 -5 -3 -10 -13 -10 -22 0 -8 -7 -31 -16 -51 -9 -21
-22 -52 -30 -69 -7 -18 -30 -77 -50 -130 -20 -54 -40 -107 -44 -118 -4 -11 -9
-24 -10 -30 -1 -5 -7 -19 -13 -30 -6 -11 -12 -25 -13 -30 -1 -6 -11 -32 -23
-58 -12 -26 -19 -52 -16 -57 3 -6 2 -10 -4 -10 -5 0 -19 -29 -31 -65 -12 -36
-25 -65 -29 -65 -4 0 -7 -8 -8 -17 0 -10 -17 -58 -36 -108 -53 -135 -55 -140
-54 -145 0 -3 -6 -16 -13 -30 -8 -14 -15 -27 -15 -30 -2 -10 -46 -124 -53
-134 -3 -6 -7 -17 -9 -25 -1 -8 -13 -25 -27 -38 -28 -26 -42 -64 -32 -88 5
-14 -37 -136 -79 -230 -7 -16 -17 -42 -20 -57 -4 -16 -11 -28 -15 -28 -7 0
-24 -50 -20 -59 1 -2 -2 -7 -7 -10 -5 -3 -20 -24 -33 -46 -58 -96 -142 -155
-220 -155 -21 0 -25 -5 -26 -30 -1 -17 3 -30 10 -31 76 -7 592 -2 602 6 8 6
11 19 8 31 -5 18 -16 22 -61 27 -30 3 -60 10 -67 16 -7 6 -15 8 -18 5 -3 -3
-18 10 -32 29 -21 27 -26 45 -25 79 2 45 21 121 44 173 32 71 165 420 165 431
0 7 7 15 16 18 8 3 12 11 9 16 -4 6 0 25 8 43 20 44 133 334 136 349 1 4 17
44 35 87 19 44 31 82 28 85 -3 4 0 6 7 6 7 0 10 3 8 8 -3 4 4 25 14 47 11 22
24 57 30 79 15 54 25 40 88 -129 29 -77 56 -149 60 -160 5 -11 9 -23 10 -27 1
-4 13 -32 26 -63 14 -30 25 -58 26 -63 2 -8 -2 2 77 -205 34 -86 62 -165 64
-175 2 -9 9 -23 16 -30 6 -7 12 -20 12 -28 0 -23 1 -29 10 -39 4 -5 38 -91 75
-190 67 -177 82 -249 63 -288 -14 -27 -46 -57 -61 -57 -7 0 -17 -4 -22 -9 -6
-5 -28 -11 -50 -13 -36 -3 -40 -6 -39 -28 1 -14 2 -27 3 -30 2 -8 755 -5 768
3 13 8 13 33 0 54 -5 8 -15 9 -30 4 -36 -13 -115 26 -174 86 -29 29 -50 53
-47 53 3 0 -3 12 -14 28 -28 38 -46 80 -117 267 -21 55 -42 111 -48 125 -6 14
-11 27 -12 30 -1 3 -5 14 -10 25 -19 46 -47 121 -49 130 -2 6 -8 24 -16 40
-28 66 -112 286 -114 300 -1 5 -5 15 -8 21 -4 6 -32 76 -62 155 -119 316 -138
364 -144 374 -4 5 -7 13 -8 18 -1 4 -3 9 -4 12 -1 3 -4 10 -5 15 -1 6 -4 12
-5 15 -1 3 -3 8 -5 13 -1 4 -8 21 -15 37 -7 17 -14 36 -16 43 -1 7 -12 33 -23
58 -12 24 -21 48 -21 53 0 5 -8 26 -17 47 -9 22 -18 45 -19 52 -3 18 -4 18
-36 26 -21 5 -30 2 -37 -13z"/>
</g>
</svg>
